PathFileType	4	(X/Y/Z)	C:/Users/opensim2020/Desktop/walking_exp_matlab/subject06_walking18_straight_03.trc																																																																																																																																											
DataRate	CameraRate	NumFrames	NumMarkers	Units	OrigDataRate	OrigDataStartFrame	OrigNumFrames																																																																																																																																							
100	100	7	47	mm	100	3353	309																																																																																																																																							
Frame#	Time	LFHD			RFHD			LBHD			RBHD			C7			T10			CLAV			STRN			RBAK			LSHO			LUPA			LELB			LFRM			LWRA			LWRB			LFIN			RSHO			RUPA			RELB			RFRM			RWRA			RWRB			RFIN			LASI			RASI			LPSI			RPSI			LTHI			LKNE			LTIB			LANK			LHEE			LTOE			RTHI			RKNE			RTIB			RANK			RHEE			RTOE			*39			*40			*41			*42			*43			*44			*45			*46		
		X1	Y1	Z1	X2	Y2	Z2	X3	Y3	Z3	X4	Y4	Z4	X5	Y5	Z5	X6	Y6	Z6	X7	Y7	Z7	X8	Y8	Z8	X9	Y9	Z9	X10	Y10	Z10	X11	Y11	Z11	X12	Y12	Z12	X13	Y13	Z13	X14	Y14	Z14	X15	Y15	Z15	X16	Y16	Z16	X17	Y17	Z17	X18	Y18	Z18	X19	Y19	Z19	X20	Y20	Z20	X21	Y21	Z21	X22	Y22	Z22	X23	Y23	Z23	X24	Y24	Z24	X25	Y25	Z25	X26	Y26	Z26	X27	Y27	Z27	X28	Y28	Z28	X29	Y29	Z29	X30	Y30	Z30	X31	Y31	Z31	X32	Y32	Z32	X33	Y33	Z33	X34	Y34	Z34	X35	Y35	Z35	X36	Y36	Z36	X37	Y37	Z37	X38	Y38	Z38	X39	Y39	Z39	X40	Y40	Z40	X41	Y41	Z41	X42	Y42	Z42	X43	Y43	Z43	X44	Y44	Z44	X45	Y45	Z45	X46	Y46	Z46	X47	Y47	Z47
																																																																																																																																														
39	0.38	-490.86819	1668.71802	1388.94299	-495.25085	1650.27893	1519.21631	-620.30664	1606.39587	1379.78931	-623.42889	1593.3269	1508.82495	-615.71912	1451.49329	1425.25891	-655.90167	1123.83423	1420.82739	-506.43146	1373.7085	1434.62634	-469.0101	1198.98914	1426.9032	-696.65448	1280.62256	1492.328	-544.0105	1409.03516	1268.72546	-532.88782	1208.54565	1192.45642	-526.18384	1096.69885	1179.72632	-429.89063	983.41077	1179.16516	-320.34366	938.84021	1242.90405	-359.49084	891.70764	1207.60095	-278.11578	854.64697	1224.43591	-565.3075	1400.41174	1591.03735	-616.58362	1202.02307	1670.31714	-613.05927	1079.84277	1681.14111	-598.41748	960.42932	1697.25659	-533.26056	823.23212	1667.81042	-590.54584	823.21381	1703.87207	-552.8562	747.63684	1707.49939	-474.07104	957.39984	1327.63501	-483.63428	975.0061	1548.74292	-631.8006	988.02893	1346.99377	-635.12213	997.2699	1515.73401	-578.28394	643.35889	1278.5321	-613.36292	482.39355	1301.62659	-749.3078	260.84567	1299.40833	-829.75549	107.87618	1338.88123	-877.93677	108.96839	1380.01941	-704.4317	38.85213	1352.37524	-487.24023	646.13623	1607.51404	-454.64813	527.08105	1578.55432	-459.91574	260.54279	1583.84338	-447.72266	74.15162	1540.86487	-484.84299	48.57892	1496.03918	-293.1463	42.70054	1536.91284	-595.61444	1697.48865	1445.67004	NaN	NaN	NaN	NaN	NaN	NaN	NaN	NaN	NaN	NaN	NaN	NaN	NaN	NaN	NaN	NaN	NaN	NaN	NaN	NaN	NaN
40	0.39	-484.87875	1670.19934	1390.9967	-489.00964	1651.57239	1521.24377	-614.29761	1607.83765	1381.99622	-617.16791	1594.57898	1510.9978	-609.63812	1452.83508	1427.29468	-649.46283	1125.26343	1422.74146	-499.92157	1375.16052	1436.38281	-462.15887	1200.57739	1428.53003	-689.9837	1281.84973	1494.18921	-537.60498	1410.45923	1270.61938	-527.30548	1209.96826	1194.32654	-521.9325	1097.87781	1181.92981	-426.46164	983.32703	1180.47388	-317.22073	937.44287	1243.60681	-357.26834	891.00665	1208.6333	-275.90613	852.87177	1225.02466	-558.74377	1401.72876	1592.95044	-609.625	1203.04785	1671.74194	-606.21545	1080.87268	1682.146	-591.72504	961.38916	1698.24121	-526.83105	823.92993	1669.06604	-584.32532	824.00214	1704.78735	-546.97723	748.33881	1708.59741	-468.14856	959.10028	1328.72778	-476.59406	975.94849	1549.75281	-625.88812	989.40833	1349.00989	-627.9563	998.39044	1517.68359	-571.10083	644.28076	1279.58801	-604.54675	482.96762	1302.54919	-744.80896	264.11819	1299.80103	-827.15192	111.8355	1338.77905	-875.0907	114.06465	1379.99573	-704.03754	38.90453	1352.25562	-481.8508	646.61853	1608.05212	-451.02939	526.9856	1578.8208	-457.75806	260.41782	1583.93152	-447.17209	74.15325	1540.62476	-484.7272	48.74028	1496.005	-292.95773	42.51357	1536.79285	-589.53168	1698.86194	1447.9873	NaN	NaN	NaN	NaN	NaN	NaN	NaN	NaN	NaN	NaN	NaN	NaN	NaN	NaN	NaN	NaN	NaN	NaN	NaN	NaN	NaN
41	0.4	-478.88431	1671.60608	1392.85791	-482.56812	1652.91052	1523.17371	-608.35828	1609.23645	1384.14014	-610.90247	1595.87805	1513.14099	-603.23486	1454.0072	1429.2854	-642.91968	1126.53442	1424.86255	-493.35818	1376.6333	1438.24353	-455.26068	1202.10632	1430.20886	-683.19806	1283.07654	1496.21472	-531.19861	1411.88147	1272.57715	-521.45123	1211.38098	1196.20984	-517.32269	1099.18408	1184.05981	-423.41977	983.18018	1181.96021	-314.2168	935.87726	1244.50159	-354.96765	890.02496	1209.32837	-274.276	850.78876	1225.47498	-552.15649	1403.0592	1594.89185	-602.69208	1204.13782	1673.34326	-599.06934	1081.93323	1683.36279	-584.76801	962.36664	1699.41296	-520.36743	824.69263	1670.32837	-577.94318	824.97638	1705.79028	-540.78247	749.16217	1709.68042	-462.45688	960.66144	1329.63892	-469.49625	976.73798	1550.56836	-619.79205	990.71667	1351.12427	-620.85974	999.51721	1519.67383	-563.99707	645.2738	1280.32275	-595.4458	483.57864	1303.26575	-739.52509	267.2843	1300.20227	-824.35297	116.12006	1338.74512	-871.8006	119.4316	1380.18958	-703.52136	38.92898	1352.20642	-477.01251	646.82391	1608.5083	-447.73444	526.61639	1578.9436	-455.91534	260.26926	1583.90601	-446.73584	74.19997	1540.41345	-484.61273	48.9617	1495.95728	-292.64374	42.27163	1536.62793	-583.40302	1700.19678	1450.15247	NaN	NaN	NaN	NaN	NaN	NaN	NaN	NaN	NaN	NaN	NaN	NaN	NaN	NaN	NaN	NaN	NaN	NaN	NaN	NaN	NaN
42	0.41	-472.93445	1672.9032	1394.6283	-476.30713	1654.22156	1524.9408	-602.31927	1610.51868	1386.19128	-604.61407	1597.14832	1515.20435	-596.7464	1455.08875	1431.27405	-636.32056	1127.6991	1427.04382	-486.8895	1377.95544	1440.02551	-448.39667	1203.57813	1431.96899	-676.51752	1284.17932	1498.44702	-524.89301	1413.19263	1274.505	-515.85083	1212.71851	1198.15295	-512.62335	1100.43701	1186.18994	-419.71173	983.20807	1183.24036	-311.2757	934.08838	1245.40405	-352.7709	888.82422	1209.92065	-272.53159	848.39917	1225.63525	-545.54431	1404.34802	1596.85449	-595.72461	1205.26941	1675.05469	-591.7099	1083.00378	1684.83508	-577.97137	963.39246	1700.54688	-513.7641	825.52631	1671.5293	-571.44556	825.96057	1706.82813	-534.58319	749.98199	1710.82043	-456.92206	962.21631	1330.62646	-462.41968	977.43317	1551.25732	-613.87756	992.00824	1353.18518	-613.84924	1000.61328	1521.64722	-556.48553	646.29156	1281.18481	-585.99744	484.08838	1303.63977	-734.05145	270.63443	1300.55981	-821.38959	120.47662	1338.75317	-868.08087	124.99133	1380.55847	-702.86414	38.95822	1352.21191	-472.59372	646.93567	1608.88403	-444.22287	526.83215	1580.01538	-454.75421	260.1882	1584.21191	-446.31351	74.26644	1540.38513	-484.46414	49.02037	1495.86804	-292.34668	42.02407	1536.57068	-577.32251	1701.45813	1452.12305	NaN	NaN	NaN	NaN	NaN	NaN	NaN	NaN	NaN	NaN	NaN	NaN	NaN	NaN	NaN	NaN	NaN	NaN	NaN	NaN	NaN
43	0.42	-466.97577	1674.0752	1396.29346	-470.24509	1655.44543	1526.51379	-596.38452	1611.5752	1388.13574	-598.42621	1598.33618	1517.17017	-590.6712	1456.15234	1433.39929	-629.82495	1128.74023	1429.23767	-480.45081	1379.28186	1441.87305	-441.69592	1204.92419	1433.7041	-669.77582	1285.1925	1500.80164	-518.83276	1414.40222	1276.50049	-510.35883	1213.9873	1200.25671	-507.8461	1101.59619	1188.42029	-416.73788	983.10199	1184.76611	-308.74078	931.64349	1246.29016	-350.75934	887.45087	1210.40137	-271.22229	845.74182	1225.66748	-538.8374	1405.59485	1598.82642	-588.79028	1206.38599	1676.89124	-584.93878	1084.06079	1686.15967	-571.02179	964.4162	1701.83105	-507.0979	826.38684	1672.70715	-564.89386	826.88251	1707.83508	-528.31104	750.86688	1711.68201	-451.76868	963.59491	1331.62341	-455.31534	978.14313	1552.2157	-607.84857	993.17279	1355.15515	-606.95648	1001.60687	1523.56848	-549.0423	647.25256	1281.44373	-576.23566	484.48795	1303.6521	-728.42792	274.20947	1300.96497	-817.76239	125.32115	1339.13123	-863.91156	130.86134	1381.19678	-702.51563	39.10685	1352.07019	-467.91626	647.21783	1609.52551	-440.79459	526.72949	1580.69006	-453.58316	260.11874	1584.40442	-446.1489	74.24868	1540.06519	-484.3931	49.1758	1495.79822	-292.00467	41.6767	1536.50354	-571.25134	1702.61792	1453.94641	NaN	NaN	NaN	NaN	NaN	NaN	NaN	NaN	NaN	NaN	NaN	NaN	NaN	NaN	NaN	NaN	NaN	NaN	NaN	NaN	NaN
44	0.43	-461.01596	1675.04077	1397.83484	-463.92853	1656.59509	1528.22803	-590.45447	1612.48047	1390.02234	-592.21802	1599.38293	1519.09082	-584.37292	1456.995	1435.54919	-623.42462	1129.71082	1431.5166	-474.04218	1380.29065	1443.67542	-435.10477	1206.10864	1435.38293	-662.96008	1286.02759	1503.30505	-513.03717	1415.57239	1278.42615	-504.87671	1215.13831	1202.33398	-502.82501	1102.67395	1190.56702	-413.77954	982.77722	1186.0321	-306.16156	929.06641	1246.87354	-348.94189	885.97443	1210.51782	-269.87564	843.13739	1225.07056	-532.00427	1406.72034	1600.83569	-581.78931	1207.43359	1678.8335	-577.57446	1085.01465	1687.88049	-564.01617	965.30768	1703.17847	-500.13553	827.10364	1673.74939	-558.23969	827.65802	1708.76794	-521.61438	751.60962	1712.69495	-444.29379	965.74683	1332.97607	-448.41248	978.6969	1552.99072	-601.87946	994.27118	1357.03479	-600.6673	1002.58472	1525.50854	-541.03516	647.98505	1282.00708	-565.96301	484.81818	1303.49023	-722.45758	277.85757	1301.41602	-813.56348	129.94655	1339.07043	-859.16547	136.97838	1382.06177	-701.89001	39.21225	1352.17285	-463.17044	647.38757	1610.26892	-437.43079	526.3158	1581.16394	-452.35556	259.99652	1584.73096	-445.78247	74.28127	1540.08936	-484.18771	49.15516	1495.73425	-291.556	41.41525	1536.448	-565.22858	1703.64905	1455.6759	NaN	NaN	NaN	NaN	NaN	NaN	NaN	NaN	NaN	NaN	NaN	NaN	NaN	NaN	NaN	NaN	NaN	NaN	NaN	NaN	NaN
45	0.44	-455.19025	1675.87952	1399.37573	-457.78165	1657.62231	1529.72449	-584.46454	1613.20752	1391.87451	-586.01093	1600.30127	1520.95227	-578.17944	1457.77161	1437.70129	-617.14764	1130.5813	1433.82397	-467.6503	1381.31604	1445.56604	-428.56082	1207.14978	1436.94263	-656.3089	1286.76306	1505.93115	-507.37134	1416.59937	1280.33179	-499.32339	1216.10229	1204.37524	-497.80011	1103.68408	1192.64478	-410.10944	982.40717	1187.17407	-303.79422	926.18701	1247.4519	-347.33453	884.23669	1210.58142	-268.92056	839.90814	1224.59436	-525.15735	1407.70349	1602.79028	-574.74237	1208.35242	1680.81128	-570.38617	1085.94287	1689.62964	-556.97137	966.11945	1704.65112	-493.33173	827.76947	1674.95923	-551.35754	828.40668	1709.91406	-514.98236	752.24249	1713.55994	-438.58148	966.92322	1333.61096	-441.63275	979.13019	1554.00391	-596.06091	995.26379	1358.76025	-593.56433	1003.31384	1527.06189	-533.04681	648.6861	1282.12183	-555.64197	485.21829	1302.75769	-715.66254	281.38861	1301.80652	-809.76923	135.27487	1339.7854	-853.7915	143.27151	1383.00439	-701.15466	39.25577	1352.36755	-458.39188	647.63446	1611.05957	-433.93106	526.37268	1582.36328	-450.90717	259.87152	1585.17639	-445.45078	74.15543	1540.04272	-484.05139	49.224	1495.74451	-291.26227	41.12725	1536.44202	-559.29083	1704.47571	1457.36584	NaN	NaN	NaN	NaN	NaN	NaN	NaN	NaN	NaN	NaN	NaN	NaN	NaN	NaN	NaN	NaN	NaN	NaN	NaN	NaN	NaN
